# xmcd
#
# Track frame offsets: 
#        151
#        17144
#        34485
#        48943
#        66457
#        75732
#        88943
#        105996
#        118357
#        132313
#        147098
#        164136
#        176798
#        192668
#        209126
#        227026
#        242750
#        259347
#
# Disc length: 3623 seconds
#
# Revision: 1
# Processed by: cddbd v1.5.2PL0 Copyright (c) Steve Scherf et al.
# Submitted via: ExactAudioCopy v1.1
#
DISCID=1d0e2512
DTITLE=Teresa Teng - Forever Collection Vol. 2
DYEAR=2001
DGENRE=Pop-Folk
TTITLE0=Rambling My Way of Life
TTITLE1=Encounter
TTITLE2=It's Hard to Tell the Weather
TTITLE3=Love is A Song
TTITLE4=Do Not Pick the Roadside Flower
TTITLE5=Forget Him
TTITLE6=Your Solitude
TTITLE7=On the West Tower Alone
TTITLE8=Colorful City
TTITLE9=Love For My Hometown
TTITLE10=Lover
TTITLE11=River of Cloud
TTITLE12=Fellow Villager
TTITLE13=Night of Hong Kong
TTITLE14=Regretful Misalliance
TTITLE15=Goodbye My Love
TTITLE16=Rain of Tears
TTITLE17=Oceans Apart
EXTD=
EXTT0=
EXTT1=
EXTT2=
EXTT3=
EXTT4=
EXTT5=
EXTT6=
EXTT7=
EXTT8=
EXTT9=
EXTT10=
EXTT11=
EXTT12=
EXTT13=
EXTT14=
EXTT15=
EXTT16=
EXTT17=
PLAYORDER=
